<svg xmlns="http://www.w3.org/2000/svg" viewBox="0 0 900 1200" fill="none">
  <rect width="900" height="1200" fill="#cec2ae"/>
  <rect width="900" height="360" fill="#e9dfd0"/>
  <rect y="360" width="900" height="840" fill="#b09b80"/>
  <rect x="155" y="160" width="590" height="860" rx="18" fill="#d9ccb7"/>
  <rect x="210" y="214" width="480" height="670" fill="#4f4d4b"/>
  <rect x="234" y="240" width="132" height="220" fill="#c7b49a"/>
  <rect x="384" y="240" width="132" height="220" fill="#d6c6b2"/>
  <rect x="534" y="240" width="132" height="220" fill="#c7b49a"/>
  <rect x="234" y="484" width="132" height="220" fill="#d6c6b2"/>
  <rect x="384" y="484" width="132" height="220" fill="#bca284"/>
  <rect x="534" y="484" width="132" height="220" fill="#d6c6b2"/>
  <rect x="318" y="770" width="264" height="160" fill="#3f3a37"/>
  <path d="M0 1040C145 980 227 975 339 997C451 1019 543 1077 667 1054C750 1038 838 1006 900 1004V1200H0V1040Z" fill="#7f735f"/>
</svg>
